<svg width="500" height="500" viewBox="0 0 500 500" fill="none" xmlns="http://www.w3.org/2000/svg">
<rect width="500" height="500" rx="250" fill="#CA2828"/>
<path d="M210.155 331.459L210.154 331.46C198.714 345.976 182.748 353.238 162.236 353.238C146.25 353.238 134.106 349.069 125.778 340.754C117.674 332.424 113.633 323.511 113.633 314.013C113.633 312.558 113.268 311.439 112.513 310.685C111.758 309.931 110.638 309.567 109.181 309.567H87.314C85.857 309.567 84.7367 309.931 83.9817 310.685C83.2266 311.439 82.8622 312.558 82.8622 314.013C82.8622 334.099 90.0486 350.487 104.422 363.165L104.424 363.167C119.035 375.605 138.311 381.817 162.236 381.817C195.019 381.817 220.398 369.866 238.353 345.961L238.353 345.96C242.004 341.051 245.283 335.817 248.191 330.256C251.117 336.122 254.449 341.596 258.187 346.676L258.188 346.677C275.663 370.102 299.367 381.817 329.286 381.817C359.187 381.817 382.648 373.814 399.651 357.793C416.651 341.774 425.15 321.33 425.15 296.473C425.15 271.383 417.491 251.296 402.162 236.229C386.832 221.16 365.281 213.635 337.531 213.635C309.908 213.635 286.423 219.672 267.085 231.755C269.262 205.189 276.178 184.679 287.82 170.208C299.499 155.69 315.585 148.429 336.097 148.429C351.845 148.429 363.749 152.598 371.838 160.912L371.839 160.913C380.183 169.245 384.342 178.157 384.342 187.654C384.342 189.112 384.738 190.233 385.555 190.986C386.37 191.737 387.579 192.099 389.152 192.099H410.661C412.234 192.099 413.443 191.737 414.258 190.986C415.075 190.233 415.471 189.112 415.471 187.654C415.471 167.567 408.165 151.298 393.553 138.859C379.18 126.182 360.023 119.85 336.097 119.85C302.36 119.85 276.622 131.799 258.904 155.707C255.326 160.486 252.11 165.602 249.255 171.054C246.37 165.328 243.095 159.973 239.43 154.992C222.433 131.565 198.966 119.85 169.047 119.85C139.147 119.85 115.685 127.852 98.6824 143.874C81.6819 159.893 73.1833 180.457 73.1833 205.552C73.1833 230.641 80.7222 250.727 95.8114 265.795L95.8131 265.796C111.144 280.626 132.695 288.032 160.443 288.032C188.067 288.032 211.552 281.994 230.89 269.912C228.713 296.477 221.796 316.987 210.155 331.459ZM214.451 173.779C225.888 190.197 231.859 213.522 232.346 243.774C212.792 256.854 192.41 263.391 171.198 263.391C149.951 263.391 133.742 258.266 122.546 248.038C111.349 237.57 105.746 223.771 105.746 206.626C105.746 189.479 111.23 175.679 122.19 165.211L122.191 165.21C133.149 154.506 148.403 149.145 167.971 149.145C187.757 149.145 203.245 157.353 214.45 173.778L214.451 173.779ZM375.786 253.986L375.787 253.987C386.984 264.216 392.587 277.895 392.587 295.041C392.587 312.187 387.104 326.107 376.143 336.814C365.186 347.28 349.813 352.522 330.003 352.522C310.457 352.522 294.969 344.314 283.525 327.888C272.326 311.47 266.474 288.145 265.987 257.893C285.541 244.813 305.923 238.276 327.136 238.276C348.382 238.276 364.591 243.52 375.786 253.986Z" fill="white" stroke="white" stroke-width="0.3"/>
</svg>
