<svg width="240" height="72" viewBox="0 0 240 72" fill="none" xmlns="http://www.w3.org/2000/svg">
<mask id="path-1-outside-1" maskUnits="userSpaceOnUse" x="0" y="13" width="160" height="47" fill="black">
<rect fill="white" y="13" width="160" height="47"/>
<path d="M16.5745 58.1997H1.80027C1.26676 58.1997 1 57.9535 1 57.461V54.3215C1 53.829 1.26676 53.5827 1.80027 53.5827H6.47879V18.617H1.80027C1.26676 18.617 1 18.3707 1 17.8782V14.7387C1 14.2462 1.26676 14 1.80027 14H16.5745C17.1081 14 17.3748 14.2462 17.3748 14.7387V17.8782C17.3748 18.3707 17.1081 18.617 16.5745 18.617H11.8345V53.5827H16.5745C17.1081 53.5827 17.3748 53.829 17.3748 54.3215V57.461C17.3748 57.9535 17.1081 58.1997 16.5745 58.1997Z"/>
<path d="M55.1969 58.1997H49.3487C47.584 58.1997 46.7017 57.3379 46.7017 55.6142V39.4241C46.7017 37.0438 46.1271 35.197 44.978 33.8837C43.8289 32.5704 42.1463 31.9138 39.9301 31.9138C36.7701 31.9138 34.3077 33.2066 32.543 35.7921C32.3378 36.0383 32.071 36.4897 31.7427 37.1464V54.0752H35.0054C35.5389 54.0752 35.8056 54.3215 35.8056 54.8139V57.461C35.8056 57.9535 35.5389 58.1997 35.0054 58.1997H23.2475C22.714 58.1997 22.4472 57.9535 22.4472 57.461V54.8139C22.4472 54.3215 22.714 54.0752 23.2475 54.0752H26.6333V32.0369H23.2475C22.714 32.0369 22.4472 31.7907 22.4472 31.2982V28.6512C22.4472 28.1587 22.714 27.9124 23.2475 27.9124H30.45C30.9835 27.9124 31.2502 28.1587 31.2502 28.6512L31.1271 32.8372H31.3118C33.4459 29.2668 36.7495 27.4815 41.2229 27.4815C44.506 27.4815 47.071 28.446 48.9178 30.3748C50.7646 32.3037 51.7085 34.9097 51.7495 38.1929V54.0752H55.1969C55.7304 54.0752 55.9971 54.3215 55.9971 54.8139V57.461C55.9971 57.9535 55.7304 58.1997 55.1969 58.1997Z"/>
<path d="M91.3154 58.1997H85.9598C85.0159 58.1997 84.3182 58.015 83.8668 57.6457C83.4564 57.2353 83.2512 56.5581 83.2512 55.6142V52.1669H83.1896C82.533 53.8905 81.3018 55.409 79.496 56.7223C77.6903 57.9945 75.4947 58.6306 72.9092 58.6306C68.8052 58.6306 65.4605 57.1942 62.875 54.3215C60.3305 51.4487 59.0583 47.6936 59.0583 43.0561C59.0583 38.3776 60.3305 34.6224 62.875 31.7907C65.4605 28.9179 68.8257 27.4815 72.9707 27.4815C75.5152 27.4815 77.6287 28.0766 79.3113 29.2668C80.994 30.4159 82.2046 31.8317 82.9434 33.5144H83.0049C82.9639 32.6936 82.9434 32.0164 82.9434 31.4829V18.1245H79.496C78.9625 18.1245 78.6958 17.8782 78.6958 17.3858V14.7387C78.6958 14.2462 78.9625 14 79.496 14H87.1294C87.6219 14 87.8681 14.2462 87.8681 14.7387V54.0752H91.3154C91.8079 54.0752 92.0542 54.3215 92.0542 54.8139V57.461C92.0542 57.9535 91.8079 58.1997 91.3154 58.1997ZM64.1062 42.933C64.1062 46.3392 64.9885 49.0889 66.7532 51.1819C68.559 53.2749 70.8367 54.3215 73.5863 54.3215C76.336 54.3215 78.5932 53.2955 80.3579 51.2435C82.1226 49.1505 83.0049 46.3803 83.0049 42.933C83.0049 39.4856 82.1021 36.777 80.2963 34.8071C78.4906 32.7962 76.2539 31.7907 73.5863 31.7907C70.9187 31.7907 68.6616 32.7962 66.8148 34.8071C65.009 36.818 64.1062 39.5267 64.1062 42.933Z"/>
<path d="M123.123 43.6717H100.962C101.126 47.078 102.193 49.7045 104.163 51.5513C106.174 53.3981 108.431 54.3215 110.935 54.3215C113.438 54.3215 115.572 53.7879 117.337 52.7209C119.143 51.6539 120.353 50.6074 120.969 49.5814C121.297 49.171 121.667 49.1094 122.077 49.3967L123.739 51.0588C123.985 51.305 124.108 51.5308 124.108 51.736C124.108 51.9001 124.006 52.1258 123.801 52.4131C123.636 52.7004 123.267 53.1518 122.692 53.7674C122.118 54.383 121.297 55.0807 120.23 55.8604C119.204 56.6402 117.85 57.2968 116.167 57.8303C114.526 58.3639 112.761 58.6306 110.873 58.6306C106.564 58.6306 102.952 57.2148 100.039 54.383C97.1658 51.5513 95.7294 47.7551 95.7294 42.9945C95.7294 38.1929 97.1658 34.4172 100.039 31.6676C102.911 28.8769 106.42 27.4815 110.565 27.4815C114.751 27.4815 118.034 28.8358 120.415 31.5445C122.795 34.212 123.985 37.8235 123.985 42.3789C123.985 42.5431 123.985 42.7072 123.985 42.8714C123.985 43.4049 123.698 43.6717 123.123 43.6717ZM118.876 39.9165C118.753 37.3721 117.952 35.3406 116.475 33.8222C114.998 32.3037 113.028 31.5445 110.565 31.5445C108.103 31.5445 105.989 32.2421 104.225 33.6375C102.46 35.0328 101.413 37.1258 101.085 39.9165H118.876Z"/>
<path d="M158.349 58.1997H146.776C146.284 58.1997 146.037 57.9535 146.037 57.461V54.8139C146.037 54.3215 146.284 54.0752 146.776 54.0752H149.854L142.59 45.1491L135.819 54.0752H138.65C139.143 54.0752 139.389 54.3215 139.389 54.8139V57.461C139.389 57.9535 139.143 58.1997 138.65 58.1997H128.247C127.754 58.1997 127.508 57.9535 127.508 57.461V54.8139C127.508 54.3215 127.754 54.0752 128.247 54.0752H131.202L140.189 42.7483L131.202 32.0369H128.247C127.754 32.0369 127.508 31.7907 127.508 31.2982V28.6512C127.508 28.1587 127.754 27.9124 128.247 27.9124H139.82C140.312 27.9124 140.559 28.1587 140.559 28.6512V31.2982C140.559 31.7907 140.312 32.0369 139.82 32.0369H136.927L144.191 40.8399L150.408 32.0369H147.946C147.453 32.0369 147.207 31.7907 147.207 31.2982V28.6512C147.207 28.1587 147.453 27.9124 147.946 27.9124H158.349C158.842 27.9124 159.088 28.1587 159.088 28.6512V31.2982C159.088 31.7907 158.842 32.0369 158.349 32.0369H155.025L146.653 43.4254L155.641 54.0752H158.349C158.842 54.0752 159.088 54.3215 159.088 54.8139V57.461C159.088 57.9535 158.842 58.1997 158.349 58.1997Z"/>
</mask>
<path d="M16.5745 58.1997H1.80027C1.26676 58.1997 1 57.9535 1 57.461V54.3215C1 53.829 1.26676 53.5827 1.80027 53.5827H6.47879V18.617H1.80027C1.26676 18.617 1 18.3707 1 17.8782V14.7387C1 14.2462 1.26676 14 1.80027 14H16.5745C17.1081 14 17.3748 14.2462 17.3748 14.7387V17.8782C17.3748 18.3707 17.1081 18.617 16.5745 18.617H11.8345V53.5827H16.5745C17.1081 53.5827 17.3748 53.829 17.3748 54.3215V57.461C17.3748 57.9535 17.1081 58.1997 16.5745 58.1997Z" fill="black"/>
<path d="M55.1969 58.1997H49.3487C47.584 58.1997 46.7017 57.3379 46.7017 55.6142V39.4241C46.7017 37.0438 46.1271 35.197 44.978 33.8837C43.8289 32.5704 42.1463 31.9138 39.9301 31.9138C36.7701 31.9138 34.3077 33.2066 32.543 35.7921C32.3378 36.0383 32.071 36.4897 31.7427 37.1464V54.0752H35.0054C35.5389 54.0752 35.8056 54.3215 35.8056 54.8139V57.461C35.8056 57.9535 35.5389 58.1997 35.0054 58.1997H23.2475C22.714 58.1997 22.4472 57.9535 22.4472 57.461V54.8139C22.4472 54.3215 22.714 54.0752 23.2475 54.0752H26.6333V32.0369H23.2475C22.714 32.0369 22.4472 31.7907 22.4472 31.2982V28.6512C22.4472 28.1587 22.714 27.9124 23.2475 27.9124H30.45C30.9835 27.9124 31.2502 28.1587 31.2502 28.6512L31.1271 32.8372H31.3118C33.4459 29.2668 36.7495 27.4815 41.2229 27.4815C44.506 27.4815 47.071 28.446 48.9178 30.3748C50.7646 32.3037 51.7085 34.9097 51.7495 38.1929V54.0752H55.1969C55.7304 54.0752 55.9971 54.3215 55.9971 54.8139V57.461C55.9971 57.9535 55.7304 58.1997 55.1969 58.1997Z" fill="black"/>
<path d="M91.3154 58.1997H85.9598C85.0159 58.1997 84.3182 58.015 83.8668 57.6457C83.4564 57.2353 83.2512 56.5581 83.2512 55.6142V52.1669H83.1896C82.533 53.8905 81.3018 55.409 79.496 56.7223C77.6903 57.9945 75.4947 58.6306 72.9092 58.6306C68.8052 58.6306 65.4605 57.1942 62.875 54.3215C60.3305 51.4487 59.0583 47.6936 59.0583 43.0561C59.0583 38.3776 60.3305 34.6224 62.875 31.7907C65.4605 28.9179 68.8257 27.4815 72.9707 27.4815C75.5152 27.4815 77.6287 28.0766 79.3113 29.2668C80.994 30.4159 82.2046 31.8317 82.9434 33.5144H83.0049C82.9639 32.6936 82.9434 32.0164 82.9434 31.4829V18.1245H79.496C78.9625 18.1245 78.6958 17.8782 78.6958 17.3858V14.7387C78.6958 14.2462 78.9625 14 79.496 14H87.1294C87.6219 14 87.8681 14.2462 87.8681 14.7387V54.0752H91.3154C91.8079 54.0752 92.0542 54.3215 92.0542 54.8139V57.461C92.0542 57.9535 91.8079 58.1997 91.3154 58.1997ZM64.1062 42.933C64.1062 46.3392 64.9885 49.0889 66.7532 51.1819C68.559 53.2749 70.8367 54.3215 73.5863 54.3215C76.336 54.3215 78.5932 53.2955 80.3579 51.2435C82.1226 49.1505 83.0049 46.3803 83.0049 42.933C83.0049 39.4856 82.1021 36.777 80.2963 34.8071C78.4906 32.7962 76.2539 31.7907 73.5863 31.7907C70.9187 31.7907 68.6616 32.7962 66.8148 34.8071C65.009 36.818 64.1062 39.5267 64.1062 42.933Z" fill="black"/>
<path d="M123.123 43.6717H100.962C101.126 47.078 102.193 49.7045 104.163 51.5513C106.174 53.3981 108.431 54.3215 110.935 54.3215C113.438 54.3215 115.572 53.7879 117.337 52.7209C119.143 51.6539 120.353 50.6074 120.969 49.5814C121.297 49.171 121.667 49.1094 122.077 49.3967L123.739 51.0588C123.985 51.305 124.108 51.5308 124.108 51.736C124.108 51.9001 124.006 52.1258 123.801 52.4131C123.636 52.7004 123.267 53.1518 122.692 53.7674C122.118 54.383 121.297 55.0807 120.23 55.8604C119.204 56.6402 117.85 57.2968 116.167 57.8303C114.526 58.3639 112.761 58.6306 110.873 58.6306C106.564 58.6306 102.952 57.2148 100.039 54.383C97.1658 51.5513 95.7294 47.7551 95.7294 42.9945C95.7294 38.1929 97.1658 34.4172 100.039 31.6676C102.911 28.8769 106.42 27.4815 110.565 27.4815C114.751 27.4815 118.034 28.8358 120.415 31.5445C122.795 34.212 123.985 37.8235 123.985 42.3789C123.985 42.5431 123.985 42.7072 123.985 42.8714C123.985 43.4049 123.698 43.6717 123.123 43.6717ZM118.876 39.9165C118.753 37.3721 117.952 35.3406 116.475 33.8222C114.998 32.3037 113.028 31.5445 110.565 31.5445C108.103 31.5445 105.989 32.2421 104.225 33.6375C102.46 35.0328 101.413 37.1258 101.085 39.9165H118.876Z" fill="black"/>
<path d="M158.349 58.1997H146.776C146.284 58.1997 146.037 57.9535 146.037 57.461V54.8139C146.037 54.3215 146.284 54.0752 146.776 54.0752H149.854L142.59 45.1491L135.819 54.0752H138.65C139.143 54.0752 139.389 54.3215 139.389 54.8139V57.461C139.389 57.9535 139.143 58.1997 138.65 58.1997H128.247C127.754 58.1997 127.508 57.9535 127.508 57.461V54.8139C127.508 54.3215 127.754 54.0752 128.247 54.0752H131.202L140.189 42.7483L131.202 32.0369H128.247C127.754 32.0369 127.508 31.7907 127.508 31.2982V28.6512C127.508 28.1587 127.754 27.9124 128.247 27.9124H139.82C140.312 27.9124 140.559 28.1587 140.559 28.6512V31.2982C140.559 31.7907 140.312 32.0369 139.82 32.0369H136.927L144.191 40.8399L150.408 32.0369H147.946C147.453 32.0369 147.207 31.7907 147.207 31.2982V28.6512C147.207 28.1587 147.453 27.9124 147.946 27.9124H158.349C158.842 27.9124 159.088 28.1587 159.088 28.6512V31.2982C159.088 31.7907 158.842 32.0369 158.349 32.0369H155.025L146.653 43.4254L155.641 54.0752H158.349C158.842 54.0752 159.088 54.3215 159.088 54.8139V57.461C159.088 57.9535 158.842 58.1997 158.349 58.1997Z" fill="black"/>
<path d="M16.5745 58.1997H1.80027C1.26676 58.1997 1 57.9535 1 57.461V54.3215C1 53.829 1.26676 53.5827 1.80027 53.5827H6.47879V18.617H1.80027C1.26676 18.617 1 18.3707 1 17.8782V14.7387C1 14.2462 1.26676 14 1.80027 14H16.5745C17.1081 14 17.3748 14.2462 17.3748 14.7387V17.8782C17.3748 18.3707 17.1081 18.617 16.5745 18.617H11.8345V53.5827H16.5745C17.1081 53.5827 17.3748 53.829 17.3748 54.3215V57.461C17.3748 57.9535 17.1081 58.1997 16.5745 58.1997Z" stroke="black" stroke-width="1.2" mask="url(#path-1-outside-1)"/>
<path d="M55.1969 58.1997H49.3487C47.584 58.1997 46.7017 57.3379 46.7017 55.6142V39.4241C46.7017 37.0438 46.1271 35.197 44.978 33.8837C43.8289 32.5704 42.1463 31.9138 39.9301 31.9138C36.7701 31.9138 34.3077 33.2066 32.543 35.7921C32.3378 36.0383 32.071 36.4897 31.7427 37.1464V54.0752H35.0054C35.5389 54.0752 35.8056 54.3215 35.8056 54.8139V57.461C35.8056 57.9535 35.5389 58.1997 35.0054 58.1997H23.2475C22.714 58.1997 22.4472 57.9535 22.4472 57.461V54.8139C22.4472 54.3215 22.714 54.0752 23.2475 54.0752H26.6333V32.0369H23.2475C22.714 32.0369 22.4472 31.7907 22.4472 31.2982V28.6512C22.4472 28.1587 22.714 27.9124 23.2475 27.9124H30.45C30.9835 27.9124 31.2502 28.1587 31.2502 28.6512L31.1271 32.8372H31.3118C33.4459 29.2668 36.7495 27.4815 41.2229 27.4815C44.506 27.4815 47.071 28.446 48.9178 30.3748C50.7646 32.3037 51.7085 34.9097 51.7495 38.1929V54.0752H55.1969C55.7304 54.0752 55.9971 54.3215 55.9971 54.8139V57.461C55.9971 57.9535 55.7304 58.1997 55.1969 58.1997Z" stroke="black" stroke-width="1.2" mask="url(#path-1-outside-1)"/>
<path d="M91.3154 58.1997H85.9598C85.0159 58.1997 84.3182 58.015 83.8668 57.6457C83.4564 57.2353 83.2512 56.5581 83.2512 55.6142V52.1669H83.1896C82.533 53.8905 81.3018 55.409 79.496 56.7223C77.6903 57.9945 75.4947 58.6306 72.9092 58.6306C68.8052 58.6306 65.4605 57.1942 62.875 54.3215C60.3305 51.4487 59.0583 47.6936 59.0583 43.0561C59.0583 38.3776 60.3305 34.6224 62.875 31.7907C65.4605 28.9179 68.8257 27.4815 72.9707 27.4815C75.5152 27.4815 77.6287 28.0766 79.3113 29.2668C80.994 30.4159 82.2046 31.8317 82.9434 33.5144H83.0049C82.9639 32.6936 82.9434 32.0164 82.9434 31.4829V18.1245H79.496C78.9625 18.1245 78.6958 17.8782 78.6958 17.3858V14.7387C78.6958 14.2462 78.9625 14 79.496 14H87.1294C87.6219 14 87.8681 14.2462 87.8681 14.7387V54.0752H91.3154C91.8079 54.0752 92.0542 54.3215 92.0542 54.8139V57.461C92.0542 57.9535 91.8079 58.1997 91.3154 58.1997ZM64.1062 42.933C64.1062 46.3392 64.9885 49.0889 66.7532 51.1819C68.559 53.2749 70.8367 54.3215 73.5863 54.3215C76.336 54.3215 78.5932 53.2955 80.3579 51.2435C82.1226 49.1505 83.0049 46.3803 83.0049 42.933C83.0049 39.4856 82.1021 36.777 80.2963 34.8071C78.4906 32.7962 76.2539 31.7907 73.5863 31.7907C70.9187 31.7907 68.6616 32.7962 66.8148 34.8071C65.009 36.818 64.1062 39.5267 64.1062 42.933Z" stroke="black" stroke-width="1.2" mask="url(#path-1-outside-1)"/>
<path d="M123.123 43.6717H100.962C101.126 47.078 102.193 49.7045 104.163 51.5513C106.174 53.3981 108.431 54.3215 110.935 54.3215C113.438 54.3215 115.572 53.7879 117.337 52.7209C119.143 51.6539 120.353 50.6074 120.969 49.5814C121.297 49.171 121.667 49.1094 122.077 49.3967L123.739 51.0588C123.985 51.305 124.108 51.5308 124.108 51.736C124.108 51.9001 124.006 52.1258 123.801 52.4131C123.636 52.7004 123.267 53.1518 122.692 53.7674C122.118 54.383 121.297 55.0807 120.23 55.8604C119.204 56.6402 117.85 57.2968 116.167 57.8303C114.526 58.3639 112.761 58.6306 110.873 58.6306C106.564 58.6306 102.952 57.2148 100.039 54.383C97.1658 51.5513 95.7294 47.7551 95.7294 42.9945C95.7294 38.1929 97.1658 34.4172 100.039 31.6676C102.911 28.8769 106.42 27.4815 110.565 27.4815C114.751 27.4815 118.034 28.8358 120.415 31.5445C122.795 34.212 123.985 37.8235 123.985 42.3789C123.985 42.5431 123.985 42.7072 123.985 42.8714C123.985 43.4049 123.698 43.6717 123.123 43.6717ZM118.876 39.9165C118.753 37.3721 117.952 35.3406 116.475 33.8222C114.998 32.3037 113.028 31.5445 110.565 31.5445C108.103 31.5445 105.989 32.2421 104.225 33.6375C102.46 35.0328 101.413 37.1258 101.085 39.9165H118.876Z" stroke="black" stroke-width="1.2" mask="url(#path-1-outside-1)"/>
<path d="M158.349 58.1997H146.776C146.284 58.1997 146.037 57.9535 146.037 57.461V54.8139C146.037 54.3215 146.284 54.0752 146.776 54.0752H149.854L142.59 45.1491L135.819 54.0752H138.65C139.143 54.0752 139.389 54.3215 139.389 54.8139V57.461C139.389 57.9535 139.143 58.1997 138.65 58.1997H128.247C127.754 58.1997 127.508 57.9535 127.508 57.461V54.8139C127.508 54.3215 127.754 54.0752 128.247 54.0752H131.202L140.189 42.7483L131.202 32.0369H128.247C127.754 32.0369 127.508 31.7907 127.508 31.2982V28.6512C127.508 28.1587 127.754 27.9124 128.247 27.9124H139.82C140.312 27.9124 140.559 28.1587 140.559 28.6512V31.2982C140.559 31.7907 140.312 32.0369 139.82 32.0369H136.927L144.191 40.8399L150.408 32.0369H147.946C147.453 32.0369 147.207 31.7907 147.207 31.2982V28.6512C147.207 28.1587 147.453 27.9124 147.946 27.9124H158.349C158.842 27.9124 159.088 28.1587 159.088 28.6512V31.2982C159.088 31.7907 158.842 32.0369 158.349 32.0369H155.025L146.653 43.4254L155.641 54.0752H158.349C158.842 54.0752 159.088 54.3215 159.088 54.8139V57.461C159.088 57.9535 158.842 58.1997 158.349 58.1997Z" stroke="black" stroke-width="1.2" mask="url(#path-1-outside-1)"/>
<rect x="168" width="72" height="72" rx="36" fill="#CA2828"/>
<path d="M202.426 49.8949C202.908 49.2471 203.345 48.5606 203.737 47.8353C204.134 48.6031 204.58 49.3239 205.075 49.9974L205.076 49.9982C207.617 53.4049 211.069 55.11 215.417 55.11C219.746 55.11 223.159 53.951 225.638 51.6156C228.113 49.2829 229.35 46.3043 229.35 42.6921C229.35 39.051 228.237 36.1233 226.001 33.9254C223.763 31.7255 220.624 30.635 216.605 30.635C212.711 30.635 209.377 31.4644 206.61 33.1302C206.945 29.443 207.928 26.6016 209.546 24.5904C211.201 22.5335 213.479 21.5021 216.398 21.5021C218.644 21.5021 220.32 22.0962 221.453 23.2608L221.454 23.2624C222.638 24.4441 223.217 25.6965 223.217 27.0222C223.217 27.2548 223.28 27.4559 223.433 27.5964C223.583 27.7348 223.794 27.7907 224.038 27.7907H227.135C227.379 27.7907 227.59 27.7348 227.74 27.5964C227.893 27.4559 227.956 27.2548 227.956 27.0222C227.956 24.0945 226.889 21.7154 224.756 19.8986C222.657 18.0481 219.866 17.13 216.398 17.13C211.506 17.13 207.758 18.8651 205.179 22.345C204.708 22.975 204.28 23.6449 203.895 24.3546C203.504 23.6062 203.067 22.9023 202.582 22.243C200.109 18.8352 196.69 17.13 192.343 17.13C188.014 17.13 184.601 18.289 182.122 20.6244C179.646 22.9574 178.41 25.9534 178.41 29.5994C178.41 33.2399 179.505 36.1673 181.706 38.3653L181.708 38.367C183.946 40.532 187.085 41.605 191.104 41.605C194.998 41.605 198.332 40.7756 201.098 39.1098C200.763 42.797 199.78 45.6384 198.162 47.6495L198.161 47.6507C196.541 49.7066 194.281 50.7379 191.362 50.7379C189.082 50.7379 187.371 50.1437 186.203 48.9783C185.055 47.7973 184.492 46.5447 184.492 45.2178C184.492 44.9885 184.434 44.7889 184.293 44.6478C184.151 44.5067 183.952 44.4493 183.722 44.4493H180.573C180.344 44.4493 180.144 44.5067 180.003 44.6478C179.861 44.7889 179.804 44.9885 179.804 45.2178C179.804 48.1451 180.853 50.5408 182.952 52.3921L182.954 52.3938C185.086 54.2091 187.894 55.11 191.362 55.11C196.119 55.11 199.813 53.3736 202.426 49.8955L202.426 49.8949ZM208.933 47.143C207.349 44.8204 206.51 41.5133 206.432 37.2045C209.211 35.3594 212.102 34.4401 215.108 34.4401C218.147 34.4401 220.445 35.1902 222.026 36.6677L222.027 36.6689C223.609 38.1143 224.404 40.0478 224.404 42.4859C224.404 44.9247 223.626 46.8944 222.075 48.409C220.528 49.8865 218.35 50.6348 215.52 50.6348C212.749 50.6348 210.558 49.4746 208.933 47.143ZM198.776 25.0976C200.393 27.42 201.25 30.7268 201.328 35.0355C198.549 36.8806 195.658 37.7999 192.652 37.7999C189.613 37.7999 187.314 37.0667 185.734 35.6232C184.151 34.1431 183.356 32.1918 183.356 29.7541C183.356 27.315 184.135 25.3631 185.684 23.8832L185.684 23.8832L185.685 23.8821C187.233 22.37 189.394 21.6052 192.188 21.6052C194.994 21.6052 197.185 22.766 198.775 25.0964L198.776 25.0976Z" fill="white" stroke="white" stroke-width="0.3"/>
</svg>
