<svg width="512" height="512" viewBox="0 0 512 512" fill="none" xmlns="http://www.w3.org/2000/svg">
<g clip-path="url(#clip0)">
<path d="M421.609 183.751C423.229 90.6592 348.07 15.0588 256 15.0588C163.998 15.0588 88.7698 90.5919 90.3911 183.751C36.7797 211.207 0 267.035 0 331.294C0 422.632 74.3093 496.941 165.647 496.941C198.958 496.941 229.997 487.05 256 470.061C282.002 487.05 313.042 496.941 346.353 496.941C437.691 496.941 512 422.632 512 331.294C512 267.035 475.22 211.207 421.609 183.751ZM256 432.218C230.355 409.235 213.492 376.648 211.122 340.171C239.966 348.3 271.216 348.528 300.878 340.171C298.508 376.649 281.645 409.236 256 432.218V432.218ZM212.647 309.125C217.78 278.057 233.513 250.522 256 230.37C278.486 250.522 294.219 278.057 299.353 309.125C272.175 318.324 241.49 318.889 212.647 309.125V309.125ZM184.543 295.816C152.088 275.596 128.766 242.044 122.294 202.876C156.983 191.133 196.648 193.621 230.96 212.574C208.093 234.808 191.608 263.568 184.543 295.816ZM281.039 212.574C315.347 193.624 355.013 191.132 389.705 202.876C383.233 242.044 359.911 275.597 327.456 295.816C320.392 263.568 303.907 234.808 281.039 212.574ZM256 45.1765C327.748 45.1765 386.642 101.219 391.231 171.828C346.35 159.181 296.888 165.814 256 192.527C215.181 165.859 165.696 159.168 120.769 171.828C125.358 101.219 184.252 45.1765 256 45.1765V45.1765ZM165.647 466.824C90.9151 466.824 30.1176 406.026 30.1176 331.294C30.1176 282.771 55.7548 240.129 94.1899 216.184C104.907 265.099 137.29 305.995 180.744 328.249C179.929 375.034 198.543 418.496 230.96 450.014C211.578 460.72 189.313 466.824 165.647 466.824V466.824ZM346.353 466.824C322.687 466.824 300.422 460.72 281.039 450.014C313.404 418.547 332.071 375.105 331.256 328.249C374.71 305.995 407.093 265.099 417.81 216.184C456.245 240.129 481.882 282.771 481.882 331.294C481.882 406.026 421.084 466.824 346.353 466.824V466.824Z" fill="#CA2828"/>
</g>
<defs>
<clipPath id="clip0">
<rect width="512" height="512" fill="white"/>
</clipPath>
</defs>
</svg>
