<svg width="512" height="512" viewBox="0 0 512 512" fill="none" xmlns="http://www.w3.org/2000/svg">
<path d="M301.176 30.1176H286.118V0H256V30.1176H225.882V0H195.765V30.1176H165.647V0H135.529V30.1176H105.412V0H75.2941V30.1176H60.2353C27.0216 30.1176 0 57.1392 0 90.3529V451.765C0 484.978 27.0216 512 60.2353 512H301.176C334.39 512 361.412 484.978 361.412 451.765V90.3529C361.412 57.1392 334.39 30.1176 301.176 30.1176ZM60.2353 60.2353H75.2941V90.3529H105.412V60.2353H135.529V90.3529H165.647V60.2353H195.765V90.3529H225.882V60.2353H256V90.3529H286.118V60.2353H301.176C317.783 60.2353 331.294 73.7461 331.294 90.3529V120.471H30.1176V90.3529C30.1176 73.7461 43.6284 60.2353 60.2353 60.2353ZM301.176 481.882H60.2353C43.6284 481.882 30.1176 468.372 30.1176 451.765V150.588H331.294V451.765C331.294 468.372 317.783 481.882 301.176 481.882Z" fill="#CA2828"/>
<path d="M60.2354 180.706H301.177V210.823H60.2354V180.706Z" fill="#CA2828"/>
<path d="M60.2354 240.941H301.177V271.059H60.2354V240.941Z" fill="#CA2828"/>
<path d="M60.2354 301.177H301.177V331.294H60.2354V301.177Z" fill="#CA2828"/>
<path d="M60.2354 361.412H240.941V391.53H60.2354V361.412Z" fill="#CA2828"/>
<path d="M60.2354 421.647H180.706V451.765H60.2354V421.647Z" fill="#CA2828"/>
<path d="M451.765 0C418.551 0 391.529 27.0216 391.529 60.2353V395.193L451.765 511.648L512 395.193V60.2353C512 27.0216 484.978 0 451.765 0ZM451.765 30.1176C468.371 30.1176 481.882 43.6284 481.882 60.2353V105.412H421.647V60.2353C421.647 43.6284 435.158 30.1176 451.765 30.1176ZM421.647 376.471V195.765H481.882V376.471H421.647ZM421.647 165.647V135.529H481.882V165.647H421.647ZM431.332 406.588H472.198L451.765 446.094L431.332 406.588Z" fill="#CA2828"/>
</svg>
