<svg width="512" height="512" viewBox="0 0 512 512" fill="none" xmlns="http://www.w3.org/2000/svg">
<g clip-path="url(#clip0)">
<path d="M256 0C159.127 0 80.3137 78.8129 80.3137 175.686C80.3137 239.442 114.347 294.315 165.647 325.021V361.412H135.529V391.529H165.647V451.765H195.765V512H316.235V451.765H346.353V391.529H376.471V361.412H346.353V325.021C397.695 294.291 431.686 239.393 431.686 175.686C431.686 78.8129 352.873 0 256 0V0ZM286.118 481.882H225.882V451.765H286.118V481.882ZM316.235 421.647H195.765V391.529H316.235V421.647ZM195.765 361.412V331.294H316.235V361.412H195.765ZM212.642 168.657L240.941 133.283V180.706H271.059V133.283L299.359 168.657L275.264 240.941H236.737L212.642 168.657ZM240.941 271.059H271.059V301.176H240.941V271.059ZM327.41 301.176H301.176V258.445L333.111 162.637L256 66.2468L178.888 162.637L210.824 258.445V301.176H184.59C138.759 275.362 110.431 227.616 110.431 175.686C110.431 95.4197 175.733 30.1176 256 30.1176C336.267 30.1176 401.569 95.4197 401.569 175.686C401.569 227.616 373.241 275.362 327.41 301.176Z" fill="#CA2828"/>
<path d="M409.127 34.5715L441.067 2.63177L462.36 23.9249L430.42 55.8647L409.127 34.5715Z" fill="#CA2828"/>
<path d="M49.5479 337.503L81.4869 305.564L102.78 326.857L70.841 358.796L49.5479 337.503Z" fill="#CA2828"/>
<path d="M466.823 165.647H512V195.765H466.823V165.647Z" fill="#CA2828"/>
<path d="M0 165.647H45.1765V195.765H0V165.647Z" fill="#CA2828"/>
<path d="M409.095 326.895L430.388 305.601L462.327 337.54L441.034 358.834L409.095 326.895Z" fill="#CA2828"/>
<path d="M49.5791 23.884L70.8723 2.59085L102.812 34.5306L81.5189 55.8238L49.5791 23.884Z" fill="#CA2828"/>
</g>
<defs>
<clipPath id="clip0">
<rect width="512" height="512" fill="white"/>
</clipPath>
</defs>
</svg>
