<svg width="512" height="512" viewBox="0 0 512 512" fill="none" xmlns="http://www.w3.org/2000/svg">
<g clip-path="url(#clip0)">
<path d="M256 0L29.3809 126.259V385.741L256 512L482.619 385.741V126.259L256 0ZM435.394 134.537L376.496 163.385L256 103.137L135.136 163.569L76.8268 134.414L256 34.5891L435.394 134.537ZM256 375.08L168.918 331.54L256 288L343.081 331.54L256 375.08ZM361.756 307.094L271.108 261.77V144.473L361.756 189.797V307.094ZM240.892 261.77L150.244 307.094V189.797L240.892 144.473V261.77ZM59.5967 159.581L120.028 189.797V340.876L240.892 401.308V468.993L59.5967 367.986V159.581ZM271.108 468.994V401.309L391.971 340.877V189.452L452.403 159.852V367.986L271.108 468.994Z" fill="#CA2828"/>
</g>
<defs>
<clipPath id="clip0">
<rect width="512" height="512" fill="white"/>
</clipPath>
</defs>
</svg>
